<svg width="159" height="50" viewBox="0 0 159 50" fill="none" xmlns="http://www.w3.org/2000/svg">
<path d="M70.301 5.60593C71.733 5.60593 72.9938 5.83174 74.0834 6.28333C75.1885 6.71936 76.1458 7.36559 76.9552 8.22208L75.0174 10.8149C74.348 10.1141 73.6242 9.59245 72.846 9.24985C72.0832 8.89169 71.2116 8.7126 70.231 8.7126C69.655 8.7126 69.188 8.7749 68.8301 8.89947C68.4722 9.02404 68.2154 9.19535 68.0596 9.41336C67.9039 9.63136 67.8262 9.88053 67.8262 10.1608C67.8262 10.4878 67.9739 10.7681 68.2698 11.0017C68.581 11.2197 69.0792 11.4066 69.764 11.5623L72.3557 12.1463C73.8966 12.5045 75.0251 13.0261 75.7411 13.7113C76.4572 14.3965 76.8152 15.3075 76.8152 16.4442C76.8152 17.5344 76.535 18.4608 75.9746 19.2239C75.4143 19.9714 74.6438 20.5397 73.6632 20.9291C72.6826 21.3028 71.5618 21.4897 70.301 21.4897C69.2737 21.4897 68.2931 21.3806 67.3592 21.1627C66.4253 20.9291 65.5847 20.6021 64.8376 20.1816C64.0905 19.7611 63.4601 19.2783 62.9464 18.7334L64.8843 16.0472C65.2735 16.4987 65.7482 16.9036 66.3085 17.2618C66.8845 17.6045 67.507 17.8768 68.1764 18.0793C68.8612 18.2819 69.5539 18.383 70.2544 18.383C70.7991 18.383 71.2506 18.3286 71.6085 18.2195C71.9821 18.1104 72.2546 17.9469 72.4257 17.729C72.5969 17.511 72.6825 17.254 72.6825 16.9581C72.6825 16.6311 72.5658 16.3586 72.3323 16.1406C72.0988 15.907 71.6552 15.7124 71.0015 15.5566L68.153 14.926C67.2814 14.7235 66.503 14.4588 65.8182 14.1318C65.1488 13.7892 64.6198 13.3376 64.2306 12.777C63.8413 12.2008 63.6469 11.4845 63.6469 10.628C63.6469 9.66252 63.9114 8.80604 64.4407 8.05857C64.97 7.29552 65.7325 6.696 66.7288 6.25997C67.7251 5.82394 68.9158 5.60593 70.301 5.60593ZM85.4686 13.8515C85.4686 13.3064 85.3129 12.8782 85.0017 12.5667C84.7059 12.2397 84.3012 12.0762 83.7876 12.0762C83.2739 12.0762 82.8303 12.2086 82.4567 12.4733C82.0986 12.7225 81.8497 13.1741 81.7096 13.8281L78.3475 13.0339C78.5653 11.9127 79.1413 11.0173 80.0752 10.3477C81.0092 9.67808 82.3244 9.34328 84.0211 9.34328C85.1572 9.34328 86.1224 9.51457 86.9162 9.85717C87.7255 10.1842 88.3405 10.6825 88.7607 11.3521C89.1964 12.0061 89.4145 12.8159 89.4145 13.7814V18.056C89.4145 18.6633 89.6867 18.967 90.2317 18.967C90.5118 18.967 90.7374 18.9359 90.9087 18.8735L90.6753 21.1393C90.2083 21.3572 89.64 21.4663 88.9709 21.4663C88.3638 21.4663 87.8268 21.3729 87.3598 21.186C86.8929 20.9835 86.527 20.6878 86.2625 20.2984C85.9977 19.8936 85.8656 19.3874 85.8656 18.7801V18.6399L86.3092 18.4764C86.3092 19.1461 86.1067 19.7067 85.7021 20.1582C85.3129 20.6098 84.7993 20.9447 84.1612 21.1627C83.5385 21.3806 82.8847 21.4897 82.1999 21.4897C81.4061 21.4897 80.7133 21.3652 80.1219 21.1159C79.5303 20.8667 79.0713 20.5086 78.7444 20.0414C78.4329 19.5586 78.2774 18.967 78.2774 18.2662C78.2774 17.4253 78.5263 16.7323 79.0246 16.1873C79.5382 15.6267 80.3398 15.2374 81.4294 15.0194L85.8422 14.1084L85.8189 16.2107L83.5775 16.6778C83.1105 16.7713 82.7603 16.9114 82.5268 17.0983C82.3087 17.2696 82.1999 17.5344 82.1999 17.8925C82.1999 18.2351 82.3244 18.4921 82.5735 18.6633C82.8224 18.8345 83.1182 18.9202 83.4607 18.9202C83.7253 18.9202 83.9744 18.8812 84.2079 18.8035C84.4567 18.7257 84.6748 18.6089 84.8616 18.4531C85.0484 18.2819 85.1962 18.0716 85.3052 17.8224C85.414 17.5732 85.4686 17.2774 85.4686 16.9348V13.8515ZM92.4754 21.2561V9.57687H96.0243L96.2344 13.5945L95.7908 13.1507C95.9463 12.3098 96.2188 11.6091 96.608 11.0484C97.0126 10.4878 97.5106 10.0674 98.1023 9.78709C98.7093 9.49121 99.3864 9.34328 100.134 9.34328C100.943 9.34328 101.643 9.49901 102.235 9.81045C102.842 10.1219 103.317 10.5813 103.659 11.1886C104.001 11.7959 104.173 12.559 104.173 13.4777V21.2561H100.204V14.5289C100.204 13.7191 100.048 13.1585 99.7366 12.847C99.4252 12.5356 99.0283 12.3799 98.5459 12.3799C98.1723 12.3799 97.8221 12.4733 97.4952 12.6602C97.1684 12.8315 96.9115 13.1118 96.7248 13.5011C96.538 13.8904 96.4446 14.4121 96.4446 15.0661V21.2561H92.4754ZM112.487 9.34328C113.67 9.34328 114.651 9.51457 115.429 9.85717C116.223 10.1842 116.838 10.628 117.274 11.1886C117.725 11.7336 118.005 12.3254 118.114 12.9638L114.448 14.1785C114.34 13.5089 114.137 13.0106 113.841 12.6835C113.561 12.3409 113.149 12.1697 112.604 12.1697C112.106 12.1697 111.686 12.2864 111.343 12.52C111.016 12.738 110.767 13.0962 110.596 13.5945C110.425 14.0773 110.339 14.7001 110.339 15.4632C110.339 16.2262 110.433 16.8491 110.619 17.3319C110.806 17.799 111.071 18.1417 111.413 18.3596C111.756 18.5622 112.16 18.6633 112.627 18.6633C113.017 18.6633 113.336 18.5932 113.585 18.4531C113.849 18.2973 114.067 18.0793 114.238 17.799C114.41 17.5187 114.519 17.1761 114.565 16.7713L118.137 17.9158C118.029 18.6009 117.733 19.2162 117.25 19.7611C116.783 20.2907 116.161 20.7111 115.382 21.0225C114.604 21.3339 113.694 21.4897 112.651 21.4897C111.374 21.4897 110.261 21.2561 109.312 20.7889C108.363 20.3061 107.631 19.6133 107.117 18.71C106.604 17.7913 106.347 16.6934 106.347 15.4165C106.347 14.1395 106.604 13.0495 107.117 12.1463C107.631 11.2275 108.347 10.5346 109.265 10.0674C110.199 9.58465 111.273 9.34328 112.487 9.34328ZM120.201 21.2561V4.62488H124.17V11.7025C124.513 10.9239 125.003 10.3399 125.641 9.9506C126.279 9.54573 127.019 9.34328 127.859 9.34328C128.669 9.34328 129.369 9.49901 129.961 9.81045C130.568 10.1219 131.042 10.5813 131.385 11.1886C131.727 11.7959 131.899 12.559 131.899 13.4777V21.2561H127.929V14.5756C127.929 13.7347 127.774 13.1585 127.462 12.847C127.167 12.52 126.77 12.3565 126.272 12.3565C125.898 12.3565 125.548 12.45 125.221 12.6368C124.894 12.8237 124.637 13.1196 124.451 13.5244C124.264 13.9293 124.17 14.4588 124.17 15.1128V21.2561H120.201ZM140.377 21.4897C139.085 21.4897 137.964 21.2484 137.014 20.7656C136.08 20.2827 135.357 19.5899 134.843 18.6867C134.329 17.7834 134.073 16.6934 134.073 15.4165C134.073 14.1395 134.329 13.0495 134.843 12.1463C135.357 11.2431 136.073 10.5501 136.991 10.0674C137.925 9.58465 138.991 9.34328 140.19 9.34328C141.419 9.34328 142.462 9.58465 143.318 10.0674C144.19 10.5346 144.852 11.1886 145.303 12.0295C145.755 12.8548 145.98 13.8047 145.98 14.8792C145.98 15.1595 145.972 15.4398 145.957 15.7201C145.941 16.0004 145.918 16.234 145.887 16.4209H136.641V14.2953H144.136L142.244 15.0194C142.244 14.085 142.073 13.3687 141.731 12.8704C141.404 12.3721 140.89 12.1229 140.19 12.1229C139.692 12.1229 139.264 12.2397 138.906 12.4733C138.563 12.7069 138.299 13.0729 138.112 13.5712C137.941 14.0695 137.855 14.7079 137.855 15.4866C137.855 16.2496 137.956 16.8725 138.158 17.3552C138.361 17.8224 138.649 18.1651 139.022 18.383C139.396 18.5855 139.847 18.6867 140.377 18.6867C140.968 18.6867 141.435 18.5699 141.777 18.3363C142.136 18.1027 142.4 17.7757 142.571 17.3552L145.747 18.4064C145.529 19.076 145.147 19.6444 144.603 20.1115C144.073 20.563 143.435 20.9057 142.688 21.1393C141.956 21.3729 141.186 21.4897 140.377 21.4897ZM147.594 21.2561V18.8268L152.24 13.5478L153.477 12.3098L151.633 12.3565H147.64V9.57687H157.867V12.0061L153.291 17.2384L152.006 18.5232L154.061 18.4764H158.077V21.2561H147.594Z" fill="#EC1C58"/>
<path d="M70.8148 29.4316C73.2274 29.4316 75.0719 30.1013 76.3483 31.4405C77.6401 32.7796 78.2862 34.6796 78.2862 37.1399C78.2862 39.6003 77.6401 41.5002 76.3483 42.8394C75.0719 44.1785 73.2274 44.8482 70.8148 44.8482H64.2773V29.4316H70.8148ZM70.4179 41.8116C71.7254 41.8116 72.6749 41.4222 73.2663 40.6437C73.8734 39.8495 74.1769 38.6816 74.1769 37.1399C74.1769 35.5983 73.8734 34.4381 73.2663 33.6595C72.6749 32.8653 71.7254 32.4682 70.4179 32.4682H68.2932V41.8116H70.4179ZM86.4526 45.0818C85.1608 45.0818 84.0401 44.8405 83.0905 44.3577C82.1566 43.8749 81.4328 43.1821 80.9191 42.2788C80.4055 41.3755 80.1487 40.2856 80.1487 39.0086C80.1487 37.7316 80.4055 36.6417 80.9191 35.7384C81.4328 34.8351 82.1489 34.1423 83.0672 33.6595C84.0011 33.1767 85.0674 32.9354 86.2658 32.9354C87.4956 32.9354 88.5386 33.1767 89.3945 33.6595C90.2663 34.1267 90.9278 34.7807 91.3791 35.6216C91.8306 36.4469 92.0562 37.3969 92.0562 38.4714C92.0562 38.7517 92.0485 39.032 92.0328 39.3123C92.0174 39.5926 91.9941 39.8261 91.9628 40.013H82.7169V37.8874H90.2117L88.3205 38.6115C88.3205 37.6772 88.1493 36.9608 87.8068 36.4625C87.4799 35.9643 86.9663 35.7151 86.2658 35.7151C85.7678 35.7151 85.3399 35.8319 84.9817 36.0654C84.6394 36.299 84.3747 36.6651 84.1879 37.1633C84.0167 37.6615 83.931 38.3001 83.931 39.0787C83.931 39.8418 84.0324 40.4645 84.2346 40.9474C84.437 41.4145 84.7249 41.7572 85.0984 41.9751C85.472 42.1776 85.9236 42.2788 86.4526 42.2788C87.0443 42.2788 87.5112 42.162 87.8535 41.9284C88.2117 41.6948 88.4762 41.3678 88.6474 40.9474L91.8227 41.9985C91.6049 42.6682 91.2236 43.2365 90.6786 43.7036C90.1496 44.1552 89.5112 44.4978 88.7641 44.7314C88.0326 44.965 87.2621 45.0818 86.4526 45.0818ZM101.5 33.169H105.609L101.407 44.8482H96.6669L92.4643 33.169H96.6436L99.0484 42.0686L101.5 33.169Z" fill="#0DA2BF"/>
<path fill-rule="evenodd" clip-rule="evenodd" d="M21.784 21.0115L31.8941 26.8511L23.1385 42.0228L28.1936 44.9426L36.949 29.7709L39.8675 24.7136L24.7025 15.9542L21.784 21.0115ZM25.275 50L0 35.401L2.91851 30.3437L28.1935 44.9428L25.275 50Z" fill="#0DA2BF"/>
<path fill-rule="evenodd" clip-rule="evenodd" d="M20.4296 0L45.7046 14.599L42.7861 19.6563L17.5111 5.05725L20.4296 0ZM17.5111 5.05736L8.75554 20.2291L5.83704 25.2864L21.002 34.0458L23.9206 28.9885L13.8105 23.1489L22.5661 7.97717L17.5111 5.05736Z" fill="#EC1C58"/>
</svg>
